<?xml version="1.0" standalone="no"?>
<!DOCTYPE svg PUBLIC "-//W3C//DTD SVG 20010904//EN"
 "http://www.w3.org/TR/2001/REC-SVG-20010904/DTD/svg10.dtd">
<svg version="1.0" xmlns="http://www.w3.org/2000/svg"
 width="541.000000pt" height="541.000000pt" viewBox="0 0 541.000000 541.000000"
 preserveAspectRatio="xMidYMid meet">
<metadata>
Created by potrace 1.14, written by Peter Selinger 2001-2017
</metadata>
<g transform="translate(0.000000,541.000000) scale(0.100000,-0.100000)"
fill="#000000" stroke="none">
<path d="M2379 4526 c-2 -2 -26 -6 -54 -9 -222 -24 -474 -121 -685 -261 -142
-94 -332 -284 -422 -421 -124 -190 -208 -385 -242 -565 l-12 -65 -59 -13 c-33
-8 -94 -24 -135 -37 -399 -123 -702 -482 -757 -897 -13 -100 -7 -273 12 -365
l7 -33 29 24 c78 66 212 94 301 64 49 -17 43 -20 143 71 22 20 74 65 115 101
41 36 80 70 86 75 6 6 114 102 241 214 l231 203 -15 36 c-21 50 -28 166 -14
234 28 135 120 252 246 314 272 133 587 -30 640 -331 11 -67 9 -122 -10 -210
-6 -29 1 -36 320 -294 180 -145 335 -265 344 -268 10 -2 33 2 52 9 21 9 62 14
106 12 81 -3 66 -13 184 127 60 70 244 285 278 324 14 17 132 154 261 305 129
151 237 277 240 280 3 3 29 33 59 68 l54 63 -23 47 c-40 82 -50 131 -47 232 3
87 6 102 40 172 67 139 186 231 337 262 162 33 332 -25 448 -152 41 -46 42
-46 21 -10 -31 57 -137 149 -210 185 -207 100 -445 66 -615 -89 -30 -28 -56
-49 -57 -47 -51 78 -220 251 -313 320 -32 24 -60 47 -62 52 -2 4 -8 7 -14 7
-5 0 -28 13 -51 29 -98 67 -289 150 -429 187 -65 16 -78 19 -138 30 -19 4 -44
9 -55 11 -23 6 -371 14 -376 9z"/>
<path d="M4252 3792 c-32 -9 -69 -30 -97 -54 -187 -165 -64 -470 184 -456 154
8 260 127 249 276 -13 171 -170 281 -336 234z"/>
<path d="M4726 3777 c3 -10 9 -15 12 -12 3 3 0 11 -7 18 -10 9 -11 8 -5 -6z"/>
<path d="M4752 3330 c-93 -199 -330 -307 -547 -250 l-70 19 -30 -32 c-16 -18
-47 -53 -67 -77 -21 -25 -44 -52 -51 -60 -8 -8 -72 -82 -142 -165 -70 -82
-131 -152 -134 -155 -3 -3 -28 -32 -56 -65 -60 -72 -64 -76 -200 -235 -59 -69
-117 -136 -128 -150 -12 -14 -62 -72 -111 -128 l-89 -103 13 -42 c44 -148 -33
-318 -175 -387 -105 -51 -253 -31 -343 46 -78 66 -113 147 -114 259 l0 70
-230 185 c-127 102 -242 194 -256 205 -14 11 -42 34 -61 50 -20 17 -55 46 -79
64 l-43 34 -38 -21 c-53 -30 -145 -52 -216 -52 -59 0 -178 31 -200 51 -15 15
-28 11 -60 -19 -25 -23 -114 -101 -310 -273 -309 -272 -420 -375 -417 -388 1
-9 3 -45 4 -81 2 -126 -75 -248 -189 -301 -29 -13 -52 -26 -53 -29 0 -9 147
-114 207 -147 153 -87 362 -140 530 -137 183 4 291 30 476 117 105 49 109 50
135 35 60 -36 260 -99 357 -113 48 -6 89 -13 130 -20 95 -17 400 -24 520 -12
197 20 412 86 581 178 39 22 76 39 83 39 6 0 36 -16 68 -37 359 -229 850 -250
1247 -52 129 65 225 136 336 248 258 258 382 569 374 931 -3 133 -5 152 -24
240 -6 25 -12 54 -15 65 -22 109 -121 319 -202 426 -71 94 -222 244 -301 297
-33 23 -65 42 -69 42 -4 0 -23 -32 -41 -70z"/>
<path d="M1547 3028 c-61 -13 -115 -46 -147 -90 -125 -172 4 -404 215 -385
225 20 297 318 107 442 -45 29 -124 44 -175 33z"/>
<path d="M2802 1949 c-82 -15 -124 -64 -128 -149 -2 -47 1 -65 19 -91 44 -66
122 -91 194 -64 93 36 130 149 75 234 -14 22 -31 42 -37 45 -72 30 -83 32
-123 25z"/>
<path d="M216 1785 c-21 -7 -49 -24 -62 -36 -24 -23 -56 -109 -49 -132 2 -7 6
-24 9 -39 3 -14 18 -40 32 -58 102 -120 297 -43 291 115 -5 115 -112 187 -221
150z"/>
<path d="M4670 1079 c-91 -47 -196 -82 -310 -105 -19 -4 -109 -8 -199 -9 -142
-2 -165 -5 -173 -19 -16 -28 15 -52 69 -55 243 -16 480 31 668 132 61 33 83
69 53 88 -19 12 -25 11 -108 -32z"/>
</g>
</svg>
